# ProBuilder 5.2.3
# https://unity3d.com/unity/features/worldbuilding/probuilder
# 22-2-2025 14:57:17

mtllib ./Cube_(43).mtl
o Cube (43)

g Cube (43)
v 12.86347 -4.836986 8.326185
v -1.695902 -4.836986 8.326185
v 12.86347 6.970414 8.326185
v -1.695902 6.970414 8.326185
v -1.695902 -4.836986 -8.326185
v -1.695902 6.970414 -8.326185
v 12.86347 -4.836986 -8.326185
v 12.86347 6.970414 -8.326185

vt 12.86347 -4.836986
vt -1.695902 -4.836986
vt 12.86347 6.970414
vt -1.695902 6.970414
vt 8.326185 -4.836986
vt -8.326185 -4.836986
vt 8.326185 6.970414
vt -8.326185 6.970414
vt 1.695902 -4.836986
vt -12.86347 -4.836986
vt 1.695902 6.970414
vt -12.86347 6.970414
vt -12.86347 8.326185
vt 1.695902 8.326185
vt -12.86347 -8.326185
vt 1.695902 -8.326185
vt 12.86347 -8.326185
vt -1.695902 -8.326185
vt 12.86347 8.326185
vt -1.695902 8.326185

vn 0 0 1
vn -1 0 0
vn 0 0 -1
vn 1 0 0
vn 0 1 0
vn 0 -1 0

usemtl ProBuilderDefault
f 3/3/1 4/4/1 2/2/1 1/1/1
f 4/7/2 6/8/2 5/6/2 2/5/2
f 6/11/3 8/12/3 7/10/3 5/9/3
f 8/7/4 3/8/4 1/6/4 7/5/4
f 8/15/5 6/16/5 4/14/5 3/13/5
f 1/19/6 2/20/6 5/18/6 7/17/6

